<svg width="16" height="16" viewBox="0 0 16 16" fill="none" xmlns="http://www.w3.org/2000/svg">
<g clip-path="url(#clip0_3_377)">
<path d="M4.96199 3.56668C5.38799 3.56668 5.78199 3.60001 6.14199 3.69868C6.46867 3.75871 6.78049 3.8819 7.05999 4.06135C7.32266 4.22601 7.51932 4.45735 7.64999 4.75401C7.78132 5.05068 7.84666 5.41401 7.84666 5.80935C7.84666 6.27135 7.74866 6.66668 7.51932 6.96335C7.32266 7.26068 6.99466 7.52401 6.60132 7.72201C7.15866 7.88735 7.58466 8.18401 7.84666 8.57935C8.10932 8.97535 8.27332 9.47001 8.27332 10.0307C8.27332 10.4927 8.17466 10.888 8.01066 11.218C7.84666 11.548 7.58466 11.8447 7.28932 12.0427C6.96852 12.2549 6.61388 12.4109 6.24066 12.504C5.84732 12.6033 5.45399 12.6693 5.06066 12.6693H0.666656V3.56668H4.96199ZM4.69932 7.26001C5.05999 7.26001 5.35532 7.16135 5.58466 6.99668C5.81399 6.83201 5.91266 6.53468 5.91266 6.17201C5.91266 5.97401 5.87932 5.77601 5.81399 5.64468C5.74866 5.51268 5.64999 5.41335 5.51932 5.31468C5.38799 5.24868 5.25666 5.18268 5.09266 5.15001C4.92866 5.11668 4.76532 5.11668 4.56799 5.11668H2.66666V7.26068H4.69999L4.69932 7.26001ZM4.79799 11.152C4.99466 11.152 5.19132 11.1187 5.35532 11.086C5.52091 11.0545 5.67751 10.9869 5.81399 10.888C5.94758 10.7915 6.05934 10.6679 6.14199 10.5253C6.20732 10.3607 6.27332 10.1627 6.27332 9.93201C6.27332 9.47001 6.14199 9.14001 5.87999 8.90935C5.61732 8.71135 5.25666 8.61268 4.83066 8.61268H2.66666V11.1527H4.79799V11.152ZM11.126 11.1187C11.388 11.3827 11.7813 11.5147 12.306 11.5147C12.6667 11.5147 12.9947 11.416 13.2567 11.2513C13.5193 11.0533 13.6833 10.8553 13.7487 10.6573H15.3553C15.0927 11.4487 14.6993 12.0093 14.1753 12.372C13.65 12.702 13.0273 12.9 12.2733 12.9C11.7909 12.9015 11.3125 12.8119 10.8633 12.636C10.4591 12.4844 10.0987 12.2352 9.81399 11.9107C9.50952 11.6071 9.28446 11.2332 9.15866 10.822C8.99466 10.3933 8.92866 9.93201 8.92866 9.40401C8.92866 8.90935 8.99466 8.44801 9.15866 8.01868C9.31634 7.60541 9.54965 7.22514 9.84666 6.89735C10.142 6.60068 10.5027 6.33735 10.896 6.17201C11.3338 5.99606 11.8015 5.90641 12.2733 5.90801C12.8307 5.90801 13.3227 6.00735 13.7487 6.23801C14.1753 6.46868 14.5027 6.73268 14.7653 7.12868C15.0333 7.50903 15.2329 7.93315 15.3553 8.38201C15.4207 8.84335 15.4533 9.30535 15.4207 9.83268H10.6667C10.6667 10.3607 10.8633 10.8553 11.126 11.1193V11.1187ZM13.1913 7.65601C12.962 7.42535 12.6013 7.29335 12.1747 7.29335C11.88 7.29335 11.65 7.35935 11.4533 7.45801C11.2567 7.55735 11.126 7.68935 10.9947 7.82135C10.874 7.94885 10.7941 8.10949 10.7653 8.28268C10.732 8.44801 10.6993 8.57935 10.6993 8.71135H13.65C13.5847 8.21668 13.4207 7.88735 13.1913 7.65601ZM10.306 4.19335H13.978V5.08401H10.3067V4.19335H10.306Z" fill="white"/>
</g>
<defs>
<clipPath id="clip0_3_377">
<rect width="16" height="16" fill="white"/>
</clipPath>
</defs>
</svg>
