<svg width="16" height="16" viewBox="0 0 16 16" fill="none" xmlns="http://www.w3.org/2000/svg">
<g clip-path="url(#clip0_3_384)">
<path d="M13.326 7.71466C13.2714 6.66527 12.9064 5.65573 12.2773 4.814C12.0857 5.02042 11.8808 5.21416 11.664 5.39399C10.998 5.94723 10.2537 6.39879 9.45534 6.73399C9.56668 6.96733 9.66868 7.19333 9.75868 7.40666V7.40866C9.78407 7.46827 9.80852 7.52828 9.83201 7.58866C10.8413 7.47533 11.9053 7.51666 12.9367 7.656C13.074 7.67466 13.2033 7.69466 13.326 7.71466ZM7.06934 2.748C7.71903 3.66344 8.31815 4.61375 8.86401 5.59466C9.67934 5.27333 10.3533 4.868 10.896 4.41666C11.0844 4.26142 11.2617 4.09323 11.4267 3.91333C10.4673 3.10647 9.25355 2.66488 8.00001 2.66666C7.68803 2.66645 7.37663 2.69344 7.06934 2.74733V2.748ZM2.83534 6.66466C3.28949 6.6532 3.74311 6.62585 4.19534 6.58266C5.28844 6.48489 6.37219 6.30166 7.43668 6.03466C6.88035 5.06814 6.27971 4.1278 5.63668 3.21666C4.94982 3.55693 4.34418 4.04093 3.86084 4.63585C3.3775 5.23077 3.02776 5.92269 2.83534 6.66466ZM3.85534 11.3567C4.11401 10.9787 4.45401 10.5533 4.90534 10.0907C5.87468 9.09733 7.01868 8.324 8.34268 7.89733L8.38401 7.88533C8.27401 7.64266 8.17068 7.426 8.06668 7.222C6.84268 7.57866 5.55334 7.80133 4.26868 7.91666C3.64201 7.97333 3.08001 7.998 2.66668 8.002C2.6655 9.22372 3.08554 10.4085 3.85601 11.3567H3.85534ZM10.0033 12.9433C9.74626 11.6468 9.38235 10.3738 8.91534 9.13733C7.58068 9.62199 6.51734 10.3307 5.69534 11.176C5.36361 11.5109 5.06922 11.8809 4.81734 12.2793C5.73655 12.9652 6.85313 13.335 8.00001 13.3333C8.68662 13.3343 9.36692 13.2023 10.0033 12.9447V12.9433ZM11.252 12.2267C12.2929 11.4265 13.0019 10.2705 13.2433 8.98C13.0167 8.92333 12.7293 8.86666 12.4133 8.82266C11.7108 8.72149 10.9979 8.71409 10.2933 8.80066C10.69 9.91988 11.0103 11.0647 11.252 12.2273V12.2267ZM8.00001 14.6667C4.31801 14.6667 1.33334 11.682 1.33334 8C1.33334 4.318 4.31801 1.33333 8.00001 1.33333C11.682 1.33333 14.6667 4.318 14.6667 8C14.6667 11.682 11.682 14.6667 8.00001 14.6667Z" fill="white"/>
</g>
<defs>
<clipPath id="clip0_3_384">
<rect width="16" height="16" fill="white"/>
</clipPath>
</defs>
</svg>
