<svg width="26" height="26" viewBox="0 0 26 26" fill="none" xmlns="http://www.w3.org/2000/svg">
<g filter="url(#filter0_d_3_16)">
<circle cx="13" cy="12" r="12" fill="#C23785"/>
</g>
<g clip-path="url(#clip0_3_16)">
<path d="M13 5.33325C14.8113 5.33325 15.0373 5.33992 15.748 5.37325C16.458 5.40659 16.9413 5.51792 17.3666 5.68325C17.8066 5.85259 18.1773 6.08192 18.548 6.45192C18.887 6.78518 19.1493 7.18831 19.3166 7.63325C19.4813 8.05792 19.5933 8.54192 19.6266 9.25192C19.658 9.96259 19.6666 10.1886 19.6666 11.9999C19.6666 13.8113 19.66 14.0373 19.6266 14.7479C19.5933 15.4579 19.4813 15.9413 19.3166 16.3666C19.1498 16.8118 18.8874 17.215 18.548 17.5479C18.2146 17.8868 17.8115 18.1491 17.3666 18.3166C16.942 18.4813 16.458 18.5933 15.748 18.6266C15.0373 18.6579 14.8113 18.6666 13 18.6666C11.1886 18.6666 10.9626 18.6599 10.252 18.6266C9.54198 18.5933 9.05865 18.4813 8.63331 18.3166C8.1882 18.1496 7.785 17.8872 7.45198 17.5479C7.11292 17.2147 6.8506 16.8116 6.68331 16.3666C6.51798 15.9419 6.40665 15.4579 6.37331 14.7479C6.34198 14.0373 6.33331 13.8113 6.33331 11.9999C6.33331 10.1886 6.33998 9.96259 6.37331 9.25192C6.40665 8.54125 6.51798 8.05859 6.68331 7.63325C6.85014 7.18804 7.11252 6.7848 7.45198 6.45192C7.78509 6.11274 8.18827 5.8504 8.63331 5.68325C9.05865 5.51792 9.54131 5.40659 10.252 5.37325C10.9626 5.34192 11.1886 5.33325 13 5.33325ZM13 8.66659C12.1159 8.66659 11.2681 9.01777 10.643 9.6429C10.0178 10.268 9.66665 11.1159 9.66665 11.9999C9.66665 12.884 10.0178 13.7318 10.643 14.3569C11.2681 14.9821 12.1159 15.3333 13 15.3333C13.884 15.3333 14.7319 14.9821 15.357 14.3569C15.9821 13.7318 16.3333 12.884 16.3333 11.9999C16.3333 11.1159 15.9821 10.268 15.357 9.6429C14.7319 9.01777 13.884 8.66659 13 8.66659ZM17.3333 8.49992C17.3333 8.2789 17.2455 8.06694 17.0892 7.91066C16.933 7.75438 16.721 7.66659 16.5 7.66659C16.279 7.66659 16.067 7.75438 15.9107 7.91066C15.7544 8.06694 15.6666 8.2789 15.6666 8.49992C15.6666 8.72093 15.7544 8.93289 15.9107 9.08917C16.067 9.24545 16.279 9.33325 16.5 9.33325C16.721 9.33325 16.933 9.24545 17.0892 9.08917C17.2455 8.93289 17.3333 8.72093 17.3333 8.49992ZM13 9.99992C13.5304 9.99992 14.0391 10.2106 14.4142 10.5857C14.7893 10.9608 15 11.4695 15 11.9999C15 12.5304 14.7893 13.0391 14.4142 13.4141C14.0391 13.7892 13.5304 13.9999 13 13.9999C12.4695 13.9999 11.9608 13.7892 11.5858 13.4141C11.2107 13.0391 11 12.5304 11 11.9999C11 11.4695 11.2107 10.9608 11.5858 10.5857C11.9608 10.2106 12.4695 9.99992 13 9.99992Z" fill="white"/>
</g>
<defs>
<filter id="filter0_d_3_16" x="0" y="0" width="26" height="26" filterUnits="userSpaceOnUse" color-interpolation-filters="sRGB">
<feFlood flood-opacity="0" result="BackgroundImageFix"/>
<feColorMatrix in="SourceAlpha" type="matrix" values="0 0 0 0 0 0 0 0 0 0 0 0 0 0 0 0 0 0 127 0" result="hardAlpha"/>
<feOffset dy="1"/>
<feGaussianBlur stdDeviation="0.5"/>
<feColorMatrix type="matrix" values="0 0 0 0 0 0 0 0 0 0 0 0 0 0 0 0 0 0 0.1 0"/>
<feBlend mode="normal" in2="BackgroundImageFix" result="effect1_dropShadow_3_16"/>
<feBlend mode="normal" in="SourceGraphic" in2="effect1_dropShadow_3_16" result="shape"/>
</filter>
<clipPath id="clip0_3_16">
<rect width="16" height="16" fill="white" transform="translate(5 4)"/>
</clipPath>
</defs>
</svg>
