<svg width="16" height="16" viewBox="0 0 16 16" fill="none" xmlns="http://www.w3.org/2000/svg">
<g clip-path="url(#clip0_3_356)">
<path d="M8.00001 1.33334C9.81134 1.33334 10.0373 1.34001 10.748 1.37334C11.458 1.40668 11.9413 1.51801 12.3667 1.68334C12.8067 1.85268 13.1773 2.08201 13.548 2.45201C13.887 2.78527 14.1493 3.1884 14.3167 3.63334C14.4813 4.05801 14.5933 4.54201 14.6267 5.25201C14.658 5.96268 14.6667 6.18868 14.6667 8.00001C14.6667 9.81134 14.66 10.0373 14.6267 10.748C14.5933 11.458 14.4813 11.9413 14.3167 12.3667C14.1498 12.8119 13.8874 13.2151 13.548 13.548C13.2147 13.8869 12.8115 14.1492 12.3667 14.3167C11.942 14.4813 11.458 14.5933 10.748 14.6267C10.0373 14.658 9.81134 14.6667 8.00001 14.6667C6.18868 14.6667 5.96268 14.66 5.25201 14.6267C4.54201 14.5933 4.05868 14.4813 3.63334 14.3167C3.18823 14.1497 2.78503 13.8873 2.45201 13.548C2.11295 13.2148 1.85063 12.8117 1.68334 12.3667C1.51801 11.942 1.40668 11.458 1.37334 10.748C1.34201 10.0373 1.33334 9.81134 1.33334 8.00001C1.33334 6.18868 1.34001 5.96268 1.37334 5.25201C1.40668 4.54134 1.51801 4.05868 1.68334 3.63334C1.85017 3.18813 2.11255 2.78489 2.45201 2.45201C2.78512 2.11283 3.1883 1.8505 3.63334 1.68334C4.05868 1.51801 4.54134 1.40668 5.25201 1.37334C5.96268 1.34201 6.18868 1.33334 8.00001 1.33334ZM8.00001 4.66668C7.11596 4.66668 6.26811 5.01787 5.64299 5.64299C5.01787 6.26811 4.66668 7.11596 4.66668 8.00001C4.66668 8.88407 5.01787 9.73191 5.64299 10.357C6.26811 10.9822 7.11596 11.3333 8.00001 11.3333C8.88407 11.3333 9.73191 10.9822 10.357 10.357C10.9822 9.73191 11.3333 8.88407 11.3333 8.00001C11.3333 7.11596 10.9822 6.26811 10.357 5.64299C9.73191 5.01787 8.88407 4.66668 8.00001 4.66668ZM12.3333 4.50001C12.3333 4.279 12.2455 4.06703 12.0893 3.91075C11.933 3.75447 11.721 3.66668 11.5 3.66668C11.279 3.66668 11.067 3.75447 10.9108 3.91075C10.7545 4.06703 10.6667 4.279 10.6667 4.50001C10.6667 4.72102 10.7545 4.93299 10.9108 5.08927C11.067 5.24555 11.279 5.33334 11.5 5.33334C11.721 5.33334 11.933 5.24555 12.0893 5.08927C12.2455 4.93299 12.3333 4.72102 12.3333 4.50001ZM8.00001 6.00001C8.53044 6.00001 9.03915 6.21072 9.41422 6.5858C9.7893 6.96087 10 7.46958 10 8.00001C10 8.53044 9.7893 9.03915 9.41422 9.41422C9.03915 9.7893 8.53044 10 8.00001 10C7.46958 10 6.96087 9.7893 6.5858 9.41422C6.21072 9.03915 6.00001 8.53044 6.00001 8.00001C6.00001 7.46958 6.21072 6.96087 6.5858 6.5858C6.96087 6.21072 7.46958 6.00001 8.00001 6.00001Z" fill="white"/>
</g>
<defs>
<clipPath id="clip0_3_356">
<rect width="16" height="16" fill="white"/>
</clipPath>
</defs>
</svg>
