<svg width="26" height="26" viewBox="0 0 26 26" fill="none" xmlns="http://www.w3.org/2000/svg">
<g filter="url(#filter0_d_3_11)">
<circle cx="13" cy="12" r="12" fill="#42C0F5"/>
</g>
<g clip-path="url(#clip0_3_11)">
<path d="M19.7747 7.77062C19.2657 7.99575 18.726 8.1436 18.1733 8.20928C18.7558 7.86091 19.1918 7.31263 19.4 6.66662C18.8533 6.99195 18.254 7.21995 17.6293 7.34328C17.2097 6.89434 16.6536 6.59659 16.0473 6.49634C15.441 6.39609 14.8186 6.49895 14.2768 6.78892C13.7351 7.07889 13.3043 7.53974 13.0514 8.09981C12.7986 8.65989 12.7378 9.2878 12.8787 9.88595C11.7701 9.83039 10.6856 9.5423 9.69553 9.04039C8.7055 8.53849 7.83209 7.83398 7.132 6.97262C6.8842 7.39825 6.75397 7.8821 6.75467 8.37462C6.75467 9.34128 7.24667 10.1953 7.99467 10.6953C7.55201 10.6813 7.11909 10.5618 6.732 10.3466V10.3813C6.73214 11.0251 6.95492 11.649 7.36257 12.1473C7.77022 12.6456 8.33766 12.9876 8.96867 13.1153C8.55775 13.2266 8.12688 13.2431 7.70867 13.1633C7.88658 13.7174 8.23334 14.2021 8.7004 14.5494C9.16746 14.8966 9.73142 15.0891 10.3133 15.1C9.73499 15.5542 9.07279 15.8899 8.36459 16.0881C7.65639 16.2862 6.91609 16.3428 6.186 16.2546C7.46047 17.0742 8.94407 17.5094 10.4593 17.5079C15.588 17.5079 18.3927 13.2593 18.3927 9.57462C18.3927 9.45462 18.3893 9.33328 18.384 9.21462C18.9299 8.82006 19.4011 8.3313 19.7753 7.77128L19.7747 7.77062Z" fill="white"/>
</g>
<defs>
<filter id="filter0_d_3_11" x="0" y="0" width="26" height="26" filterUnits="userSpaceOnUse" color-interpolation-filters="sRGB">
<feFlood flood-opacity="0" result="BackgroundImageFix"/>
<feColorMatrix in="SourceAlpha" type="matrix" values="0 0 0 0 0 0 0 0 0 0 0 0 0 0 0 0 0 0 127 0" result="hardAlpha"/>
<feOffset dy="1"/>
<feGaussianBlur stdDeviation="0.5"/>
<feColorMatrix type="matrix" values="0 0 0 0 0 0 0 0 0 0 0 0 0 0 0 0 0 0 0.1 0"/>
<feBlend mode="normal" in2="BackgroundImageFix" result="effect1_dropShadow_3_11"/>
<feBlend mode="normal" in="SourceGraphic" in2="effect1_dropShadow_3_11" result="shape"/>
</filter>
<clipPath id="clip0_3_11">
<rect width="16" height="16" fill="white" transform="translate(5 4)"/>
</clipPath>
</defs>
</svg>
