<svg width="16" height="16" viewBox="0 0 16 16" fill="none" xmlns="http://www.w3.org/2000/svg">
<g clip-path="url(#clip0_3_370)">
<path d="M14.7747 3.77065C14.2657 3.99578 13.726 4.14363 13.1733 4.20932C13.7558 3.86094 14.1918 3.31266 14.4 2.66665C13.8533 2.99198 13.254 3.21998 12.6293 3.34331C12.2097 2.89437 11.6536 2.59662 11.0473 2.49637C10.441 2.39612 9.81863 2.49898 9.27685 2.78895C8.73507 3.07892 8.30426 3.53977 8.05141 4.09984C7.79857 4.65992 7.73784 5.28784 7.87867 5.88598C6.77008 5.83042 5.68556 5.54233 4.69553 5.04042C3.7055 4.53852 2.83209 3.83401 2.132 2.97265C1.8842 3.39828 1.75397 3.88213 1.75467 4.37465C1.75467 5.34131 2.24667 6.19532 2.99467 6.69532C2.55201 6.68138 2.11909 6.56184 1.732 6.34665V6.38131C1.73214 7.02512 1.95492 7.64906 2.36257 8.14736C2.77022 8.64565 3.33766 8.98763 3.96867 9.11532C3.55775 9.22667 3.12688 9.24309 2.70867 9.16331C2.88658 9.71747 3.23334 10.2021 3.7004 10.5494C4.16746 10.8967 4.73142 11.0892 5.31334 11.1C4.73499 11.5542 4.07279 11.89 3.36459 12.0881C2.65639 12.2862 1.91609 12.3428 1.186 12.2546C2.46047 13.0743 3.94407 13.5094 5.45934 13.508C10.588 13.508 13.3927 9.25932 13.3927 5.57465C13.3927 5.45465 13.3893 5.33331 13.384 5.21465C13.9299 4.82009 14.4011 4.33133 14.7753 3.77131L14.7747 3.77065Z" fill="white"/>
</g>
<defs>
<clipPath id="clip0_3_370">
<rect width="16" height="16" fill="white"/>
</clipPath>
</defs>
</svg>
