<svg width="16" height="16" viewBox="0 0 16 16" fill="none" xmlns="http://www.w3.org/2000/svg">
<g clip-path="url(#clip0_3_363)">
<path d="M14.362 4.33199C14.6667 5.51999 14.6667 7.99999 14.6667 7.99999C14.6667 7.99999 14.6667 10.48 14.362 11.668C14.1927 12.3247 13.6973 12.8413 13.07 13.016C11.9307 13.3333 8.00001 13.3333 8.00001 13.3333C8.00001 13.3333 4.07134 13.3333 2.93001 13.016C2.30001 12.8387 1.80534 12.3227 1.63801 11.668C1.33334 10.48 1.33334 7.99999 1.33334 7.99999C1.33334 7.99999 1.33334 5.51999 1.63801 4.33199C1.80734 3.67532 2.30268 3.15866 2.93001 2.98399C4.07134 2.66666 8.00001 2.66666 8.00001 2.66666C8.00001 2.66666 11.9307 2.66666 13.07 2.98399C13.7 3.16132 14.1947 3.67732 14.362 4.33199ZM6.66668 10.3333L10.6667 7.99999L6.66668 5.66666V10.3333Z" fill="white"/>
</g>
<defs>
<clipPath id="clip0_3_363">
<rect width="16" height="16" fill="white"/>
</clipPath>
</defs>
</svg>
